<?xml version="1.0"?>
<svg xmlns="http://www.w3.org/2000/svg" xmlns:xlink="http://www.w3.org/1999/xlink" xmlns:svgjs="http://svgjs.com/svgjs" version="1.1" width="512" height="512" x="0" y="0" viewBox="0 0 512 512" style="enable-background:new 0 0 512 512" xml:space="preserve" class=""><g><g xmlns="http://www.w3.org/2000/svg"><path d="m399.2 167.7c-7 0-12.7 5.7-12.7 12.7s5.7 12.7 12.7 12.7 12.7-5.7 12.7-12.7-5.7-12.7-12.7-12.7zm0 13.3c-.4 0-.7-.3-.7-.7s.3-.7.7-.7.7.3.7.7-.3.7-.7.7z" fill="#fb0000" data-original="#000000" style=""/><path d="m304.4 156.3c-3.1-1.3-6.6.1-7.9 3.2-1.3 3-2.4 6.2-3.3 9.4s1 6.5 4.2 7.4c.5.1 1.1.2 1.6.2 2.6 0 5.1-1.8 5.8-4.4.7-2.7 1.6-5.3 2.7-7.8 1.3-3.2-.1-6.7-3.1-8z" fill="#fb0000" data-original="#000000" style=""/><path d="m336.8 119.9c-10.3 4.1-19.7 10.7-27.2 19.1-2.2 2.5-2 6.3.5 8.5 1.1 1 2.6 1.5 4 1.5 1.6 0 3.3-.7 4.5-2 6.3-7 14.1-12.5 22.7-15.9 3.1-1.2 4.6-4.7 3.4-7.8-1.4-3.2-4.9-4.7-7.9-3.4z" fill="#fb0000" data-original="#000000" style=""/><path d="m71.9 167.7c-7 0-12.7 5.7-12.7 12.7s5.8 12.6 12.7 12.6 12.7-5.7 12.7-12.7-5.7-12.6-12.7-12.6zm0 13.3c-.4 0-.7-.3-.7-.7s.3-.7.7-.7.7.3.7.7-.3.7-.7.7z" fill="#fb0000" data-original="#000000" style=""/><path d="m166.8 156.3c-3 1.3-4.5 4.8-3.2 7.9 1.1 2.5 2 5.2 2.7 7.8.7 2.7 3.1 4.4 5.8 4.4.5 0 1.1-.1 1.6-.2 3.2-.9 5.1-4.2 4.2-7.4s-2-6.3-3.3-9.4c-1.2-3-4.7-4.4-7.8-3.1z" fill="#fb0000" data-original="#000000" style=""/><path d="m134.4 119.9c-3.1-1.2-6.6.3-7.8 3.4s.3 6.6 3.4 7.8c8.6 3.4 16.4 8.9 22.7 15.9 1.2 1.3 2.8 2 4.5 2 1.4 0 2.9-.5 4-1.5 2.5-2.2 2.7-6 .5-8.5-7.6-8.5-17-15-27.3-19.1z" fill="#fb0000" data-original="#000000" style=""/><path d="m475.6 92.6c-10.5-28.5-31.5-51.2-59.2-63.9-27.6-12.7-58.5-13.9-87-3.4-3.1 1.1-4.7 4.6-3.5 7.7 1.1 3.1 4.6 4.7 7.7 3.5 25.5-9.4 53.1-8.3 77.8 3.1 24.8 11.4 43.6 31.7 53 57.2.9 2.4 3.2 3.9 5.6 3.9.7 0 1.4-.1 2.1-.4 3.1-1.1 4.7-4.6 3.5-7.7z" fill="#fb0000" data-original="#000000" style=""/><path d="m399.6 65.4c-17.8-8.2-37.7-9-56.1-2.2-3.1 1.1-4.7 4.6-3.5 7.7 1.1 3.1 4.6 4.7 7.7 3.5 15.4-5.7 32.1-5 46.9 1.8 14.9 6.9 26.2 19.1 31.9 34.5.9 2.4 3.2 3.9 5.6 3.9.7 0 1.4-.1 2.1-.4 3.1-1.1 4.7-4.6 3.5-7.7-6.8-18.3-20.3-32.9-38.1-41.1z" fill="#fb0000" data-original="#000000" style=""/><path d="m114.3 91.8c-31.7.7-60.8 18.4-76 46.3-1.5 2.8-2.3 6-2.3 9.3v66.1c0 3.2.8 6.4 2.4 9.3 15.2 27.7 44 45.5 75.4 46.4 8.8.2 17.5-.8 25.9-3.1v199.3c0 18 14.7 32.7 32.7 32.7s32.7-14.7 32.7-32.7v-283.7c0-24.5-9.7-47.5-27.2-64.7-17.3-16.8-39.8-25.7-63.6-25.2zm78.6 353.3h-14.3c-3.3 0-6 2.7-6 6s2.7 6 6 6h14.3v7.7c0 11.2-8.7 20.7-19.9 21.2-11.8.4-21.5-9-21.5-20.7v-8.2h1.1c3.3 0 6-2.7 6-6s-2.7-6-6-6h-1.1v-206.5c0-10.5-8.4-19.1-18.9-19.3-3.3-.1-6.2 2.3-6.4 5.5-.3 3.6 2.6 6.5 6.1 6.5 4-.1 7.2 3.3 7.2 7.3v14.9c-8.2 2.6-16.8 3.8-25.5 3.6-27-.8-52-16.2-65.1-40.2-.6-1.1-.9-2.3-.9-3.5v-66.1c0-1.2.3-2.4.9-3.5 13.1-24.1 38.3-39.5 65.7-40 20.5-.4 39.9 7.3 54.7 21.8 15.2 14.9 23.6 34.8 23.6 56.1z" fill="#fb0000" data-original="#000000" style=""/><path d="m356.8 91.8c-23.8-.5-46.3 8.5-63.4 25.2-17.5 17.2-27.2 40.1-27.2 64.7v283.7c0 18 14.7 32.7 32.7 32.7s32.7-14.7 32.7-32.7v-199.4c8.4 2.3 17 3.3 25.9 3.1 31.3-.9 60.2-18.7 75.4-46.4 1.5-2.8 2.3-6 2.3-9.3v-66.1c0-3.2-.8-6.4-2.3-9.2-15.2-27.9-44.4-45.7-76.1-46.3zm66.4 121.6c0 1.2-.3 2.5-.9 3.5-13.1 24-38.1 39.4-65.2 40.2-8.7.3-17.3-1-25.5-3.6v-14.9c0-4 3.2-7.4 7.2-7.3 3.5.1 6.4-2.9 6.1-6.5-.3-3.2-3.2-5.6-6.4-5.5-10.5.2-18.9 8.8-18.9 19.3v206.5h-1.1c-3.3 0-6 2.7-6 6s2.7 6 6 6h1.1v7.7c0 11.2-8.7 20.7-19.9 21.2-11.8.4-21.5-9-21.5-20.7v-8.2h14.3c3.3 0 6-2.7 6-6s-2.7-6-6-6h-14.3v-263.4c0-21.3 8.4-41.2 23.6-56.1 14.4-14.1 33.2-21.8 53.1-21.8h1.6c27.4.6 52.6 15.9 65.7 40 .6 1.1.9 2.3.9 3.5z" fill="#fb0000" data-original="#000000" style=""/></g></g></svg>
